<mxfile host="app.diagrams.net" agent="Mozilla/5.0 (Windows NT 10.0; Win64; x64) AppleWebKit/537.36 (KHTML, like Gecko) Chrome/136.0.0.0 Safari/537.36" version="27.1.0">
  <diagram name="Página-1" id="lQia9NwxSN_g5n2Ou02t">
    <mxGraphModel grid="1" page="1" gridSize="10" guides="1" tooltips="1" connect="1" arrows="1" fold="1" pageScale="1" pageWidth="827" pageHeight="1169" math="0" shadow="0">
      <root>
        <mxCell id="0" />
        <mxCell id="1" parent="0" />
        <mxCell id="C0id3ejcGkAUrOK4Zdlk-2" value="DETECTOR DE GÁS" style="text;html=1;align=center;verticalAlign=middle;resizable=0;points=[];autosize=1;strokeColor=none;fillColor=none;fontSize=27;" vertex="1" parent="1">
          <mxGeometry x="1040" y="20" width="280" height="50" as="geometry" />
        </mxCell>
        <mxCell id="C0id3ejcGkAUrOK4Zdlk-25" style="edgeStyle=orthogonalEdgeStyle;rounded=0;orthogonalLoop=1;jettySize=auto;html=1;exitX=0.5;exitY=1;exitDx=0;exitDy=0;entryX=0.5;entryY=0;entryDx=0;entryDy=0;" edge="1" parent="1" source="C0id3ejcGkAUrOK4Zdlk-4" target="C0id3ejcGkAUrOK4Zdlk-6">
          <mxGeometry relative="1" as="geometry" />
        </mxCell>
        <mxCell id="C0id3ejcGkAUrOK4Zdlk-4" value="INICÍO !" style="ellipse;whiteSpace=wrap;html=1;" vertex="1" parent="1">
          <mxGeometry x="345" y="120" width="120" height="80" as="geometry" />
        </mxCell>
        <mxCell id="C0id3ejcGkAUrOK4Zdlk-8" style="edgeStyle=orthogonalEdgeStyle;rounded=0;orthogonalLoop=1;jettySize=auto;html=1;exitX=0;exitY=0.5;exitDx=0;exitDy=0;" edge="1" parent="1" source="C0id3ejcGkAUrOK4Zdlk-6" target="C0id3ejcGkAUrOK4Zdlk-13">
          <mxGeometry relative="1" as="geometry">
            <mxPoint x="200" y="490" as="targetPoint" />
          </mxGeometry>
        </mxCell>
        <mxCell id="C0id3ejcGkAUrOK4Zdlk-10" value="SIM" style="edgeLabel;html=1;align=center;verticalAlign=middle;resizable=0;points=[];" connectable="0" vertex="1" parent="C0id3ejcGkAUrOK4Zdlk-8">
          <mxGeometry x="-0.1618" relative="1" as="geometry">
            <mxPoint x="1" as="offset" />
          </mxGeometry>
        </mxCell>
        <mxCell id="C0id3ejcGkAUrOK4Zdlk-22" style="edgeStyle=orthogonalEdgeStyle;rounded=0;orthogonalLoop=1;jettySize=auto;html=1;exitX=1;exitY=0.5;exitDx=0;exitDy=0;entryX=0.5;entryY=0;entryDx=0;entryDy=0;" edge="1" parent="1" source="C0id3ejcGkAUrOK4Zdlk-6" target="C0id3ejcGkAUrOK4Zdlk-14">
          <mxGeometry relative="1" as="geometry">
            <mxPoint x="600" y="450" as="targetPoint" />
          </mxGeometry>
        </mxCell>
        <mxCell id="C0id3ejcGkAUrOK4Zdlk-6" value="Detecção presença&lt;span style=&quot;background-color: transparent; color: light-dark(rgb(0, 0, 0), rgb(255, 255, 255));&quot;&gt;&amp;nbsp;?&lt;/span&gt;" style="rhombus;whiteSpace=wrap;html=1;" vertex="1" parent="1">
          <mxGeometry x="330" y="320" width="150" height="120" as="geometry" />
        </mxCell>
        <mxCell id="C0id3ejcGkAUrOK4Zdlk-23" style="edgeStyle=orthogonalEdgeStyle;rounded=0;orthogonalLoop=1;jettySize=auto;html=1;exitX=0.5;exitY=1;exitDx=0;exitDy=0;entryX=0;entryY=0.5;entryDx=0;entryDy=0;" edge="1" parent="1" source="C0id3ejcGkAUrOK4Zdlk-13" target="C0id3ejcGkAUrOK4Zdlk-18">
          <mxGeometry relative="1" as="geometry" />
        </mxCell>
        <mxCell id="C0id3ejcGkAUrOK4Zdlk-13" value="Acender a luz&amp;nbsp;" style="rounded=0;whiteSpace=wrap;html=1;" vertex="1" parent="1">
          <mxGeometry x="140" y="460" width="120" height="60" as="geometry" />
        </mxCell>
        <mxCell id="C0id3ejcGkAUrOK4Zdlk-24" style="edgeStyle=orthogonalEdgeStyle;rounded=0;orthogonalLoop=1;jettySize=auto;html=1;exitX=0.5;exitY=1;exitDx=0;exitDy=0;entryX=1;entryY=0.5;entryDx=0;entryDy=0;" edge="1" parent="1" source="C0id3ejcGkAUrOK4Zdlk-14" target="C0id3ejcGkAUrOK4Zdlk-18">
          <mxGeometry relative="1" as="geometry" />
        </mxCell>
        <mxCell id="C0id3ejcGkAUrOK4Zdlk-14" value="Manter luz apagada" style="rounded=0;whiteSpace=wrap;html=1;" vertex="1" parent="1">
          <mxGeometry x="540" y="460" width="120" height="60" as="geometry" />
        </mxCell>
        <mxCell id="C0id3ejcGkAUrOK4Zdlk-18" value="Fim" style="ellipse;whiteSpace=wrap;html=1;" vertex="1" parent="1">
          <mxGeometry x="340" y="600" width="120" height="80" as="geometry" />
        </mxCell>
        <mxCell id="C0id3ejcGkAUrOK4Zdlk-29" style="edgeStyle=orthogonalEdgeStyle;rounded=0;orthogonalLoop=1;jettySize=auto;html=1;entryX=0.5;entryY=0;entryDx=0;entryDy=0;" edge="1" parent="1" source="C0id3ejcGkAUrOK4Zdlk-26" target="C0id3ejcGkAUrOK4Zdlk-28">
          <mxGeometry relative="1" as="geometry" />
        </mxCell>
        <mxCell id="C0id3ejcGkAUrOK4Zdlk-26" value="INICÍO !!" style="ellipse;whiteSpace=wrap;html=1;" vertex="1" parent="1">
          <mxGeometry x="1121" y="120" width="120" height="80" as="geometry" />
        </mxCell>
        <mxCell id="C0id3ejcGkAUrOK4Zdlk-27" value="DETECTOR DE PRESENÇA" style="text;html=1;align=center;verticalAlign=middle;resizable=0;points=[];autosize=1;strokeColor=none;fillColor=none;fontSize=27;" vertex="1" parent="1">
          <mxGeometry x="220" y="20" width="370" height="50" as="geometry" />
        </mxCell>
        <mxCell id="C0id3ejcGkAUrOK4Zdlk-30" style="edgeStyle=orthogonalEdgeStyle;rounded=0;orthogonalLoop=1;jettySize=auto;html=1;exitX=0;exitY=0.5;exitDx=0;exitDy=0;" edge="1" parent="1" source="C0id3ejcGkAUrOK4Zdlk-28">
          <mxGeometry relative="1" as="geometry">
            <mxPoint x="970" y="490" as="targetPoint" />
          </mxGeometry>
        </mxCell>
        <mxCell id="C0id3ejcGkAUrOK4Zdlk-38" value="SIM" style="edgeLabel;html=1;align=center;verticalAlign=middle;resizable=0;points=[];" connectable="0" vertex="1" parent="C0id3ejcGkAUrOK4Zdlk-30">
          <mxGeometry x="-0.5151" y="-1" relative="1" as="geometry">
            <mxPoint as="offset" />
          </mxGeometry>
        </mxCell>
        <mxCell id="C0id3ejcGkAUrOK4Zdlk-32" style="edgeStyle=orthogonalEdgeStyle;rounded=0;orthogonalLoop=1;jettySize=auto;html=1;exitX=1;exitY=0.5;exitDx=0;exitDy=0;" edge="1" parent="1" source="C0id3ejcGkAUrOK4Zdlk-28">
          <mxGeometry relative="1" as="geometry">
            <mxPoint x="1390" y="490" as="targetPoint" />
          </mxGeometry>
        </mxCell>
        <mxCell id="C0id3ejcGkAUrOK4Zdlk-37" value="NÃO" style="edgeLabel;html=1;align=center;verticalAlign=middle;resizable=0;points=[];" connectable="0" vertex="1" parent="C0id3ejcGkAUrOK4Zdlk-32">
          <mxGeometry x="-0.4727" y="1" relative="1" as="geometry">
            <mxPoint as="offset" />
          </mxGeometry>
        </mxCell>
        <mxCell id="C0id3ejcGkAUrOK4Zdlk-28" value="Gás detectado ?" style="rhombus;whiteSpace=wrap;html=1;" vertex="1" parent="1">
          <mxGeometry x="1106" y="320" width="150" height="120" as="geometry" />
        </mxCell>
        <mxCell id="C0id3ejcGkAUrOK4Zdlk-43" style="edgeStyle=orthogonalEdgeStyle;rounded=0;orthogonalLoop=1;jettySize=auto;html=1;exitX=0.5;exitY=1;exitDx=0;exitDy=0;entryX=0;entryY=0.5;entryDx=0;entryDy=0;" edge="1" parent="1" source="C0id3ejcGkAUrOK4Zdlk-39" target="C0id3ejcGkAUrOK4Zdlk-42">
          <mxGeometry relative="1" as="geometry" />
        </mxCell>
        <mxCell id="C0id3ejcGkAUrOK4Zdlk-39" value="Acionar alarme !!" style="rounded=0;whiteSpace=wrap;html=1;" vertex="1" parent="1">
          <mxGeometry x="910" y="490" width="120" height="60" as="geometry" />
        </mxCell>
        <mxCell id="C0id3ejcGkAUrOK4Zdlk-44" style="edgeStyle=orthogonalEdgeStyle;rounded=0;orthogonalLoop=1;jettySize=auto;html=1;exitX=0.5;exitY=1;exitDx=0;exitDy=0;entryX=1;entryY=0.5;entryDx=0;entryDy=0;" edge="1" parent="1" source="C0id3ejcGkAUrOK4Zdlk-40" target="C0id3ejcGkAUrOK4Zdlk-42">
          <mxGeometry relative="1" as="geometry" />
        </mxCell>
        <mxCell id="C0id3ejcGkAUrOK4Zdlk-40" value="Continuar monitorando" style="rounded=0;whiteSpace=wrap;html=1;" vertex="1" parent="1">
          <mxGeometry x="1330" y="490" width="120" height="60" as="geometry" />
        </mxCell>
        <mxCell id="C0id3ejcGkAUrOK4Zdlk-42" value="FIM" style="ellipse;whiteSpace=wrap;html=1;" vertex="1" parent="1">
          <mxGeometry x="1121" y="600" width="120" height="80" as="geometry" />
        </mxCell>
        <mxCell id="C0id3ejcGkAUrOK4Zdlk-45" value="DESTRAVAR A PORTA ATRAVES&lt;div&gt;DA BIOMETRIA&lt;/div&gt;" style="text;html=1;align=center;verticalAlign=middle;resizable=0;points=[];autosize=1;strokeColor=none;fillColor=none;fontSize=27;" vertex="1" parent="1">
          <mxGeometry x="1865" y="10" width="430" height="80" as="geometry" />
        </mxCell>
        <mxCell id="nLwfDOSU1HfRdbPiZEIF-2" style="edgeStyle=orthogonalEdgeStyle;rounded=0;orthogonalLoop=1;jettySize=auto;html=1;exitX=0.5;exitY=1;exitDx=0;exitDy=0;entryX=0.5;entryY=0;entryDx=0;entryDy=0;" edge="1" parent="1" source="C0id3ejcGkAUrOK4Zdlk-46" target="nLwfDOSU1HfRdbPiZEIF-1">
          <mxGeometry relative="1" as="geometry" />
        </mxCell>
        <mxCell id="C0id3ejcGkAUrOK4Zdlk-46" value="INICÍO !!" style="ellipse;whiteSpace=wrap;html=1;" vertex="1" parent="1">
          <mxGeometry x="2020" y="120" width="120" height="80" as="geometry" />
        </mxCell>
        <mxCell id="nLwfDOSU1HfRdbPiZEIF-4" style="edgeStyle=orthogonalEdgeStyle;rounded=0;orthogonalLoop=1;jettySize=auto;html=1;" edge="1" parent="1" source="C0id3ejcGkAUrOK4Zdlk-48">
          <mxGeometry relative="1" as="geometry">
            <mxPoint x="1880" y="680" as="targetPoint" />
          </mxGeometry>
        </mxCell>
        <mxCell id="nLwfDOSU1HfRdbPiZEIF-6" value="SIM" style="edgeLabel;html=1;align=center;verticalAlign=middle;resizable=0;points=[];" connectable="0" vertex="1" parent="nLwfDOSU1HfRdbPiZEIF-4">
          <mxGeometry x="-0.4156" y="1" relative="1" as="geometry">
            <mxPoint as="offset" />
          </mxGeometry>
        </mxCell>
        <mxCell id="nLwfDOSU1HfRdbPiZEIF-7" style="edgeStyle=orthogonalEdgeStyle;rounded=0;orthogonalLoop=1;jettySize=auto;html=1;exitX=1;exitY=0.5;exitDx=0;exitDy=0;" edge="1" parent="1" source="C0id3ejcGkAUrOK4Zdlk-48">
          <mxGeometry relative="1" as="geometry">
            <mxPoint x="2280" y="680" as="targetPoint" />
          </mxGeometry>
        </mxCell>
        <mxCell id="nLwfDOSU1HfRdbPiZEIF-9" value="NÃO" style="edgeLabel;html=1;align=center;verticalAlign=middle;resizable=0;points=[];" connectable="0" vertex="1" parent="nLwfDOSU1HfRdbPiZEIF-7">
          <mxGeometry x="-0.4212" y="2" relative="1" as="geometry">
            <mxPoint as="offset" />
          </mxGeometry>
        </mxCell>
        <mxCell id="C0id3ejcGkAUrOK4Zdlk-48" value="A biometria inserida&amp;nbsp;&lt;div&gt;é a correta ?&lt;/div&gt;" style="rhombus;whiteSpace=wrap;html=1;" vertex="1" parent="1">
          <mxGeometry x="2005" y="520" width="150" height="120" as="geometry" />
        </mxCell>
        <mxCell id="nLwfDOSU1HfRdbPiZEIF-3" style="edgeStyle=orthogonalEdgeStyle;rounded=0;orthogonalLoop=1;jettySize=auto;html=1;exitX=0.5;exitY=1;exitDx=0;exitDy=0;" edge="1" parent="1" source="nLwfDOSU1HfRdbPiZEIF-1" target="C0id3ejcGkAUrOK4Zdlk-48">
          <mxGeometry relative="1" as="geometry" />
        </mxCell>
        <mxCell id="nLwfDOSU1HfRdbPiZEIF-1" value="Inserir a biometria" style="rounded=0;whiteSpace=wrap;html=1;" vertex="1" parent="1">
          <mxGeometry x="2020" y="340" width="120" height="60" as="geometry" />
        </mxCell>
        <mxCell id="nLwfDOSU1HfRdbPiZEIF-5" value="Destrancar porta" style="rounded=0;whiteSpace=wrap;html=1;" vertex="1" parent="1">
          <mxGeometry x="1820" y="680" width="120" height="60" as="geometry" />
        </mxCell>
        <mxCell id="nLwfDOSU1HfRdbPiZEIF-8" value="Aguardar biometria&amp;nbsp;&lt;div&gt;correta&lt;/div&gt;" style="rounded=0;whiteSpace=wrap;html=1;" vertex="1" parent="1">
          <mxGeometry x="2220" y="680" width="120" height="60" as="geometry" />
        </mxCell>
        <mxCell id="nLwfDOSU1HfRdbPiZEIF-10" value="FIM" style="ellipse;whiteSpace=wrap;html=1;" vertex="1" parent="1">
          <mxGeometry x="2020" y="800" width="120" height="80" as="geometry" />
        </mxCell>
        <mxCell id="nLwfDOSU1HfRdbPiZEIF-11" style="edgeStyle=orthogonalEdgeStyle;rounded=0;orthogonalLoop=1;jettySize=auto;html=1;exitX=0.5;exitY=1;exitDx=0;exitDy=0;entryX=0.006;entryY=0.628;entryDx=0;entryDy=0;entryPerimeter=0;" edge="1" parent="1" source="nLwfDOSU1HfRdbPiZEIF-5" target="nLwfDOSU1HfRdbPiZEIF-10">
          <mxGeometry relative="1" as="geometry" />
        </mxCell>
        <mxCell id="nLwfDOSU1HfRdbPiZEIF-12" style="edgeStyle=orthogonalEdgeStyle;rounded=0;orthogonalLoop=1;jettySize=auto;html=1;exitX=0.5;exitY=1;exitDx=0;exitDy=0;entryX=0.997;entryY=0.57;entryDx=0;entryDy=0;entryPerimeter=0;" edge="1" parent="1" source="nLwfDOSU1HfRdbPiZEIF-8" target="nLwfDOSU1HfRdbPiZEIF-10">
          <mxGeometry relative="1" as="geometry" />
        </mxCell>
        <mxCell id="nLwfDOSU1HfRdbPiZEIF-13" value="ALARME&amp;nbsp;" style="text;html=1;align=center;verticalAlign=middle;resizable=0;points=[];autosize=1;strokeColor=none;fillColor=none;fontSize=27;" vertex="1" parent="1">
          <mxGeometry x="2860" y="20" width="140" height="50" as="geometry" />
        </mxCell>
        <mxCell id="nLwfDOSU1HfRdbPiZEIF-16" style="edgeStyle=orthogonalEdgeStyle;rounded=0;orthogonalLoop=1;jettySize=auto;html=1;exitX=0.5;exitY=1;exitDx=0;exitDy=0;entryX=0.5;entryY=0;entryDx=0;entryDy=0;" edge="1" parent="1" source="nLwfDOSU1HfRdbPiZEIF-14" target="nLwfDOSU1HfRdbPiZEIF-15">
          <mxGeometry relative="1" as="geometry" />
        </mxCell>
        <mxCell id="nLwfDOSU1HfRdbPiZEIF-14" value="INICÍO !!" style="ellipse;whiteSpace=wrap;html=1;" vertex="1" parent="1">
          <mxGeometry x="2870" y="120" width="120" height="80" as="geometry" />
        </mxCell>
        <mxCell id="nLwfDOSU1HfRdbPiZEIF-18" value="" style="edgeStyle=orthogonalEdgeStyle;rounded=0;orthogonalLoop=1;jettySize=auto;html=1;" edge="1" parent="1" source="nLwfDOSU1HfRdbPiZEIF-15" target="nLwfDOSU1HfRdbPiZEIF-17">
          <mxGeometry relative="1" as="geometry" />
        </mxCell>
        <mxCell id="nLwfDOSU1HfRdbPiZEIF-15" value="Tocar som&amp;nbsp;" style="rhombus;whiteSpace=wrap;html=1;" vertex="1" parent="1">
          <mxGeometry x="2855" y="300" width="150" height="120" as="geometry" />
        </mxCell>
        <mxCell id="nLwfDOSU1HfRdbPiZEIF-20" style="edgeStyle=orthogonalEdgeStyle;rounded=0;orthogonalLoop=1;jettySize=auto;html=1;exitX=0.5;exitY=1;exitDx=0;exitDy=0;entryX=0.5;entryY=0;entryDx=0;entryDy=0;" edge="1" parent="1" source="nLwfDOSU1HfRdbPiZEIF-17" target="nLwfDOSU1HfRdbPiZEIF-19">
          <mxGeometry relative="1" as="geometry" />
        </mxCell>
        <mxCell id="nLwfDOSU1HfRdbPiZEIF-17" value="Tomar remedio" style="whiteSpace=wrap;html=1;" vertex="1" parent="1">
          <mxGeometry x="2870" y="530" width="120" height="60" as="geometry" />
        </mxCell>
        <mxCell id="nLwfDOSU1HfRdbPiZEIF-19" value="FIM" style="ellipse;whiteSpace=wrap;html=1;" vertex="1" parent="1">
          <mxGeometry x="2870" y="700" width="120" height="80" as="geometry" />
        </mxCell>
      </root>
    </mxGraphModel>
  </diagram>
</mxfile>
